<svg width="1122.5" height="793.7" version="1.1" viewBox="0 0 297 210" xmlns="http://www.w3.org/2000/svg"><g transform="translate(0 -87)" fill="#fff"><ellipse cx="314.64" cy="269.38" rx="99.47" ry="57.201"/><ellipse cx="216.85" cy="292.9" rx="73" ry="30.472"/><ellipse cx="55.65" cy="81.085" rx="79.922" ry="35.793"/><ellipse cx="-5.5338" cy="120.08" rx="31.606" ry="20.868"/><ellipse cx="300.71" cy="225.27" rx="37.057" ry="25.928"/><ellipse cx="33.233" cy="121.86" rx="26.946" ry="19.652"/><ellipse transform="scale(-1,1)" cx="8.1584" cy="270.75" rx="99.47" ry="57.201"/><ellipse transform="scale(-1,1)" cx="-89.64" cy="294.27" rx="73" ry="30.472"/><ellipse transform="scale(-1,1)" cx="-5.773" cy="226.65" rx="37.057" ry="25.928"/><ellipse transform="scale(-1,1)" cx="-229.66" cy="80.107" rx="79.922" ry="35.793"/><ellipse transform="scale(-1,1)" cx="-290.84" cy="119.11" rx="31.606" ry="20.868"/><ellipse transform="scale(-1,1)" cx="-252.08" cy="120.88" rx="26.946" ry="19.652"/></g></svg>
