<svg width="1065.9" height="1065.9" version="1.1" viewBox="0 0 282.02 282.02" xmlns="http://www.w3.org/2000/svg" xmlns:xlink="http://www.w3.org/1999/xlink"><defs><linearGradient id="a" x1="48.947" x2="20.717" y1="223.23" y2="143.34" gradientTransform="translate(-.24919 .21359)" gradientUnits="userSpaceOnUse"><stop stop-color="#fcfce6" offset="0"/><stop stop-color="#f8f8cb" offset="1"/></linearGradient></defs><g transform="translate(39.647 -23.554)"><g transform="translate(-5.1574 -12.034)"><rect x="-14.635" y="55.037" width="243.12" height="243.12" ry="31.606" fill="#fafada" stroke="#fff" stroke-linecap="round" stroke-width="8.4667"/><g transform="matrix(.77405 0 0 .77405 106.1 58.482)"><g transform="matrix(2.282 0 0 2.282 -63.103 -268.54)" stroke="#a12887" stroke-width="15.875"><g transform="matrix(.92255 .0043266 -.0025853 1.0839 0 0)" fill="none" stroke="#54254a" stroke-linecap="round" stroke-linejoin="round" stroke-width="15.979" aria-label="O"><path d="m30.252 125.13q20.661-0.76521 33.542 12.052 12.945 12.817 12.945 32.075 0 16.452-9.6289 28.95-12.753 16.58-36.029 16.58-23.339 0-36.092-15.814-10.075-12.498-10.075-29.652 0-19.258 13.072-32.075 13.136-12.881 32.266-12.116zm0.76521 4.0811q-11.861 0-18.046 12.116-5.0376 9.9477-5.0376 28.568 0 22.127 7.7796 32.713 5.4202 7.397 15.177 7.397 6.568 0 10.968-3.1884 5.6115-4.0811 8.7361-13.009 3.1246-8.9912 3.1246-23.403 0-17.153-3.1884-25.635-3.1884-8.5448-8.1622-12.052-4.9101-3.5072-11.351-3.5072z" fill="none" stroke="#54254a" stroke-linecap="round" stroke-linejoin="round" stroke-width="15.979"/></g></g><g transform="matrix(2.282 0 0 2.282 -62.577 -269.06)"><g transform="matrix(.92255 .0043266 -.0025853 1.0839 0 0)" fill="url(#a)" aria-label="O"><path d="m28.452 125.88q20.661-0.76521 33.542 12.052 12.945 12.817 12.945 32.075 0 16.452-9.6289 28.95-12.753 16.58-36.029 16.58-23.339 0-36.092-15.814-10.075-12.498-10.075-29.652 0-19.258 13.072-32.075 13.136-12.881 32.266-12.116zm0.76521 4.0811q-11.861 0-18.046 12.116-5.0376 9.9477-5.0376 28.568 0 22.127 7.7796 32.713 5.4202 7.397 15.177 7.397 6.568 0 10.968-3.1884 5.6115-4.0811 8.7361-13.009 3.1246-8.9912 3.1246-23.403 0-17.153-3.1884-25.634-3.1884-8.5448-8.1622-12.052-4.9101-3.5072-11.351-3.5072z" fill="url(#a)"/></g></g></g></g></g></svg>
