<svg width="1065.9" height="1065.9" version="1.1" viewBox="0 0 282.02 282.02" xmlns="http://www.w3.org/2000/svg" xmlns:xlink="http://www.w3.org/1999/xlink"><defs><linearGradient id="a"><stop stop-color="#f9d1ff" offset="0"/><stop stop-color="#f7ffd1" offset="1"/></linearGradient><linearGradient id="c" x1="23.428" x2="209.26" y1="89.646" y2="240.37" gradientTransform="translate(16.074 -27.026)" gradientUnits="userSpaceOnUse"><stop stop-color="#59274d" offset="0"/><stop stop-color="#244452" offset="1"/></linearGradient><linearGradient id="b" x1="23.428" x2="209.26" y1="89.646" y2="240.37" gradientTransform="translate(-29.115 28.135)" gradientUnits="userSpaceOnUse"><stop stop-color="#59274d" offset="0"/><stop stop-color="#244452" offset="1"/></linearGradient><linearGradient id="f" x1="109.34" x2="105.33" y1="48.851" y2="300.42" gradientUnits="userSpaceOnUse" xlink:href="#a"/><linearGradient id="e" x1="109.34" x2="105.33" y1="48.851" y2="300.42" gradientTransform="translate(-29.115 28.135)" gradientUnits="userSpaceOnUse" xlink:href="#a"/><linearGradient id="d" x1="109.34" x2="105.33" y1="48.851" y2="300.42" gradientTransform="translate(16.074 -27.026)" gradientUnits="userSpaceOnUse" xlink:href="#a"/><clipPath id="g"><g transform="translate(-1.1958e-6)"><g transform="matrix(.92255 .0043266 -.0025853 1.0839 0 0)" fill="#ffd2ff" aria-label="O"><path d="m80.095 59.617q31.701-1.1741 51.465 18.492 19.862 19.666 19.862 49.214 0 25.243-14.774 44.42-19.568 25.439-55.28 25.439-35.81 0-55.378-24.265-15.459-19.177-15.459-45.496 0-29.548 20.058-49.214 20.155-19.764 49.508-18.59zm1.1741 6.2619q-18.199 0-27.689 18.59-7.7295 15.263-7.7295 43.833 0 33.951 11.937 50.193 8.3165 11.35 23.286 11.35 10.078 0 16.829-4.8921 8.6101-6.2619 13.404-19.96 4.7942-13.796 4.7942-35.908 0-26.319-4.8921-39.332-4.8921-13.111-12.524-18.492-7.5338-5.3813-17.416-5.3813z" fill="#ffd2ff"/></g><g transform="matrix(.92255 .0043266 -.0025853 1.0839 0 0)" fill="#ffd2ff" aria-label="F"><path d="m150.83 126.29v54.498h3.8158c5.8705 0 10.665-0.88057 14.383-2.6417 3.718-1.7612 6.8489-4.729 9.3928-8.9036 2.6091-4.1746 4.305-9.8168 5.0878-16.927h3.4245v66.63h-3.4245c-1.2393-12.589-4.6312-20.873-10.176-24.852-5.4791-4.0441-11.708-6.0662-18.688-6.0662h-3.8158v40.604c0 6.7837 0.35875 11.023 1.0763 12.719 0.78273 1.6959 2.2504 3.1962 4.4029 4.5007 2.2177 1.2393 5.1856 1.859 8.9036 1.859h4.4029v3.6201h-69.37v-3.6201h4.4029c3.8484 0 6.9468-0.68489 9.295-2.0547 1.6959-0.91319 3.0005-2.4786 3.9137-4.6964 0.71751-1.5655 1.0763-5.6748 1.0763-12.328v-87.275c0-6.7837-0.35875-11.023-1.0763-12.719l2.5194-9.9798h91.8v38.06h-4.0115c-0.91319-8.9362-3.2614-15.557-7.0446-19.862-3.718-4.305-9.1319-7.3381-16.242-9.0993-3.9137-0.97841-11.154-1.4676-21.721-1.4676z" fill="#ffd2ff"/></g></g></clipPath></defs><g transform="translate(39.647 -23.554)"><g transform="translate(-5.1574 -12.034)" fill="url(#f)"><text transform="matrix(.92255 .0043266 -.0025853 1.0839 0 0)" x="97.692772" y="267.21082" fill="#ffffff" font-family="sans-serif" font-size="217.73px" letter-spacing="0px" stroke-linecap="round" stroke-linejoin="round" stroke-width="5.4432" word-spacing="0px" style="line-height:1.25" xml:space="preserve"><tspan x="97.692772" y="267.21082" fill="#ffffff" font-family="serif" font-weight="bold" stroke-linecap="round" stroke-linejoin="round" stroke-width="5.4432">F</tspan></text><rect x="-34.895" y="35.182" width="282.83" height="282.83" fill="#fafada"/><g transform="matrix(1.0866 0 0 1.0866 -1.4785 -14.499)"><g transform="matrix(.92255 .0043266 -.0025853 1.0839 0 0)" fill="url(#e)" stroke="url(#b)" stroke-linecap="round" stroke-linejoin="round" stroke-width="24.517" aria-label="F"><path d="m148.88 132.36v54.498h3.8158c5.8705 0 10.665-0.88057 14.383-2.6417 3.718-1.7612 6.8489-4.729 9.3928-8.9036 2.6091-4.1746 4.305-9.8168 5.0878-16.927h3.4244v66.63h-3.4244c-1.2393-12.589-4.6312-20.873-10.176-24.852-5.4791-4.0441-11.708-6.0662-18.688-6.0662h-3.8158v40.604c0 6.7837 0.35875 11.023 1.0763 12.719 0.78273 1.6959 2.2504 3.1962 4.4029 4.5007 2.2177 1.2393 5.1856 1.859 8.9036 1.859 1.3187 0.34976 4.0993 1.8388 4.4029 3.6201h-69.37c-0.77354-1.8694 0.21916-3.864 4.4029-3.6201 3.8484 0 6.9468-0.68489 9.295-2.0547 1.6959-0.91319 3.0005-2.4786 3.9137-4.6964 0.7175-1.5655 1.0762-5.6748 1.0762-12.328v-87.275c0-6.7837-0.35875-11.023-1.0762-12.719l1.2672-9.9798h93.052v38.06h-4.0115c-0.91319-8.9362-3.2614-15.557-7.0446-19.862-3.718-4.305-9.1319-7.3381-16.242-9.0993-3.9137-0.97842-11.154-1.4676-21.721-1.4676z" fill="url(#e)" stroke="url(#b)" stroke-linecap="round" stroke-linejoin="round" stroke-width="24.517"/></g><g transform="matrix(.92255 .0043266 -.0025853 1.0839 0 0)" fill="url(#d)" stroke="url(#c)" stroke-linecap="round" stroke-linejoin="round" stroke-width="24.517" aria-label="O"><path d="m78.147 65.686q31.701-1.1741 51.465 18.492 19.862 19.666 19.862 49.214 0 25.243-14.774 44.42-19.568 25.439-55.28 25.439-35.81 0-55.378-24.265-15.459-19.177-15.459-45.496 0-29.548 20.058-49.214 20.155-19.764 49.508-18.59zm1.1741 6.2619q-18.199 0-27.689 18.59-7.7295 15.263-7.7295 43.833 0 33.951 11.937 50.193 8.3165 11.35 23.286 11.35 10.078 0 16.829-4.8921 8.6101-6.2619 13.404-19.96 4.7942-13.796 4.7942-35.908 0-26.319-4.8921-39.332-4.8921-13.111-12.524-18.492-7.5338-5.3813-17.416-5.3813z" fill="url(#d)" stroke="url(#c)" stroke-linecap="round" stroke-linejoin="round" stroke-width="24.517"/></g><g transform="matrix(.92255 .0043266 -.0025853 1.0839 0 0)" fill="#fff" aria-label="F"><path d="m146.5 133.18v54.498h3.8158c5.8705 0 10.665-0.88057 14.383-2.6417 3.718-1.7612 6.8489-4.729 9.3928-8.9036 2.6091-4.1746 4.305-9.8168 5.0878-16.927h3.4244v66.63h-3.4244c-1.2393-12.589-4.6312-20.873-10.176-24.852-5.4791-4.0441-11.708-6.0662-18.688-6.0662h-3.8158v40.604c0 6.7837 0.35875 11.023 1.0763 12.719 0.78273 1.6959 2.2504 3.1962 4.4029 4.5007 2.2177 1.2393 5.1856 1.859 8.9036 1.859h4.4029v3.6201h-69.37v-3.6201h4.4029c3.8484 0 6.9468-0.68489 9.295-2.0547 1.6959-0.91319 3.0005-2.4786 3.9137-4.6964 0.7175-1.5655 1.0762-5.6748 1.0762-12.328v-87.275c0-6.7837-0.35875-11.023-1.0762-12.719l3.8564-9.9798h90.463v38.06h-4.0115c-0.91319-8.9362-3.2614-15.557-7.0446-19.862-3.718-4.305-9.1319-7.3381-16.242-9.0993-3.9137-0.97842-11.154-1.4676-21.721-1.4676z" fill="#fff"/></g><g transform="matrix(.92255 .0043266 -.0025853 1.0839 0 0)" fill="#fff" aria-label="O"><path d="m75.766 66.507q31.701-1.1741 51.465 18.492 19.862 19.666 19.862 49.214 0 25.243-14.774 44.42-19.568 25.439-55.28 25.439-35.81 0-55.378-24.265-15.459-19.177-15.459-45.496 0-29.548 20.058-49.214 20.155-19.764 49.508-18.59zm1.1741 6.2619q-18.199 0-27.689 18.59-7.7295 15.263-7.7295 43.833 0 33.951 11.937 50.193 8.3165 11.35 23.286 11.35 10.078 0 16.829-4.8921 8.6101-6.2619 13.404-19.96 4.7942-13.796 4.7942-35.908 0-26.319-4.8921-39.332-4.8921-13.111-12.524-18.492-7.5338-5.3813-17.416-5.3813z" fill="#fff"/></g><path transform="translate(-4.0113 7.4495)" d="m-32.896 170.06 173.92-105.44 96.844 19.483-255 165.04 74.782 27.219 181.94-118.33-15.186 108.59-206.87 23.208" clip-path="url(#g)" fill="#fafae0"/></g></g></g></svg>
